# Blender v2.92.0 OBJ File: 'properPlane.blend'
# www.blender.org
mtllib prop.mtl
o Cylinder
v -11.309969 -0.127392 0.036877
v -10.637755 -0.312675 0.143850
v -11.309969 -0.112733 0.057333
v -10.637755 -0.273586 0.198398
v -11.309969 -0.094365 0.074537
v -10.637755 -0.224607 0.244272
v -11.309969 -0.072993 0.087826
v -10.637755 -0.167620 0.279709
v -11.309968 -0.049440 0.096691
v -10.637755 -0.104813 0.303348
v -11.309968 -0.024610 0.100790
v -10.637755 -0.038603 0.314279
v -11.309968 0.000543 0.099967
v -10.637755 0.028469 0.312083
v -11.309968 0.025052 0.094252
v -10.637755 0.093823 0.296845
v -11.309968 0.047975 0.083866
v -10.637755 0.154949 0.269149
v -11.309968 0.068432 0.069207
v -10.637755 0.209497 0.230061
v -11.309969 0.085635 0.050839
v -10.637755 0.255371 0.181082
v -11.309969 0.098925 0.029468
v -10.637755 0.290808 0.124094
v -11.309969 0.107790 0.005914
v -10.637755 0.314446 0.061288
v -11.309969 0.111889 -0.018916
v -10.637755 0.325378 -0.004923
v -11.309969 0.111066 -0.044069
v -10.637755 0.323182 -0.071994
v -11.309969 0.105351 -0.068578
v -10.637755 0.307944 -0.137349
v -11.309969 0.094965 -0.091501
v -10.637755 0.280248 -0.198474
v -11.309969 0.080306 -0.111957
v -10.637755 0.241159 -0.253022
v -11.309969 0.061938 -0.129161
v -10.637755 0.192180 -0.298896
v -11.309969 0.040566 -0.142450
v -10.637755 0.135193 -0.334334
v -11.309969 0.017013 -0.151315
v -10.637755 0.072386 -0.357972
v -11.309969 -0.007817 -0.155415
v -10.637755 0.006175 -0.368904
v -11.309969 -0.032970 -0.154591
v -10.637755 -0.060896 -0.366708
v -11.309969 -0.057479 -0.148876
v -10.637755 -0.126250 -0.351469
v -11.309969 -0.080402 -0.138490
v -10.637755 -0.187376 -0.323774
v -11.309969 -0.100859 -0.123831
v -10.637755 -0.241924 -0.284685
v -11.309969 -0.118062 -0.105463
v -10.637755 -0.287798 -0.235706
v -11.309969 -0.131352 -0.084092
v -10.637755 -0.323235 -0.178718
v -11.309969 -0.140217 -0.060538
v -10.637755 -0.346873 -0.115912
v -11.309969 -0.144316 -0.035708
v -10.637755 -0.357805 -0.049701
v -11.309969 -0.143493 -0.010555
v -10.637755 -0.355609 0.017371
v -11.309969 -0.137778 0.013954
v -10.637755 -0.340370 0.082725
v -10.973862 -0.220033 0.090363
v -10.973862 -0.193160 0.127865
v -10.973862 -0.159486 0.159404
v -10.973862 -0.120306 0.183768
v -10.973862 -0.077127 0.200019
v -10.973862 -0.031606 0.207535
v -10.973862 0.014506 0.206025
v -10.973862 0.059438 0.195549
v -10.973862 0.101462 0.176508
v -10.973862 0.138964 0.149634
v -10.973862 0.170503 0.115960
v -10.973862 0.194866 0.076781
v -10.973862 0.211118 0.033601
v -10.973862 0.218633 -0.011919
v -10.973862 0.217124 -0.058032
v -10.973862 0.206647 -0.102963
v -10.973862 0.187606 -0.144988
v -10.973862 0.160733 -0.182490
v -10.973862 0.127059 -0.214029
v -10.973862 0.087879 -0.238392
v -10.973862 0.044700 -0.254644
v -10.973862 -0.000821 -0.262159
v -10.973862 -0.046933 -0.260649
v -10.973862 -0.091865 -0.250173
v -10.973862 -0.133889 -0.231132
v -10.973862 -0.171391 -0.204258
v -10.973862 -0.202930 -0.170584
v -10.973862 -0.227293 -0.131405
v -10.973862 -0.243545 -0.088225
v -10.973862 -0.251060 -0.042705
v -10.973862 -0.249551 0.003408
v -10.973862 -0.239074 0.048339
v -10.805808 -0.266354 0.117107
v -10.805808 -0.233373 0.163132
v -10.805808 -0.192047 0.201838
v -10.805808 -0.143963 0.231738
v -10.805808 -0.090970 0.251684
v -10.805808 -0.035104 0.260907
v -10.805808 0.021487 0.259054
v -10.805808 0.076630 0.246197
v -10.805808 0.128205 0.222828
v -10.805808 0.174230 0.189847
v -10.805808 0.212937 0.148521
v -10.805808 0.242837 0.100437
v -10.805808 0.262782 0.047445
v -10.805808 0.272006 -0.008421
v -10.805808 0.270153 -0.065013
v -10.805808 0.257296 -0.120156
v -10.805808 0.233927 -0.171731
v -10.805808 0.200946 -0.217756
v -10.805808 0.159620 -0.256462
v -10.805808 0.111536 -0.286363
v -10.805808 0.058543 -0.306308
v -10.805808 0.002677 -0.315531
v -10.805808 -0.053914 -0.313679
v -10.805808 -0.109057 -0.300821
v -10.805808 -0.160632 -0.277453
v -10.805808 -0.206657 -0.244472
v -10.805808 -0.245364 -0.203145
v -10.805808 -0.275264 -0.155061
v -10.805808 -0.295209 -0.102068
v -10.805808 -0.304433 -0.046203
v -10.805808 -0.302580 0.010389
v -10.805808 -0.289722 0.065532
v -10.805808 1.571044 -0.758421
v -10.973862 1.517672 -0.761919
v -10.805808 1.569191 -0.815013
v -10.973862 1.516162 -0.808031
v -10.805808 1.556334 -0.870156
v -10.973862 1.505685 -0.852963
v -10.805808 1.532965 -0.921731
v -10.973862 1.486644 -0.894987
v -10.805808 1.499984 -0.967756
v -10.973862 1.459771 -0.932490
v -10.805808 -1.505696 -0.994472
v -10.973862 -1.470430 -0.954258
v -10.805808 -1.544402 -0.953145
v -10.973862 -1.501968 -0.920585
v -10.805808 -1.574302 -0.905061
v -10.973862 -1.526332 -0.881405
v -10.805808 -1.594247 -0.852069
v -10.973862 -1.542583 -0.838225
v -10.805808 -1.603471 -0.796203
v -10.973862 -1.550099 -0.792705
v -10.805808 -0.143963 1.731738
v -10.973862 -0.120306 1.683768
v -10.805808 -0.090970 1.751684
v -10.973862 -0.077127 1.700019
v -10.805808 -0.035104 1.760907
v -10.973862 -0.031606 1.707535
v -10.805808 0.021487 1.759055
v -10.973862 0.014506 1.706025
v -10.805808 0.076630 1.746197
v -10.973862 0.059438 1.695549
vt 0.599213 0.088307
vt 0.599213 0.088307
vt 0.599213 0.088307
vt 0.599213 0.088307
vt 0.599213 0.088307
vt 0.599213 0.088307
vt 0.599213 0.088307
vt 0.599213 0.088307
vt 0.599213 0.088307
vt 0.599213 0.088307
vt 0.599213 0.088307
vt 0.599213 0.088307
vt 0.599213 0.088307
vt 0.599213 0.088307
vt 0.599213 0.088307
vt 0.599213 0.088307
vt 0.599213 0.088307
vt 0.599213 0.088307
vt 0.599213 0.088307
vt 0.599213 0.088307
vt 0.599213 0.088307
vt 0.599213 0.088307
vt 0.599213 0.088307
vt 0.599213 0.088307
vt 0.599213 0.088307
vt 0.599213 0.088307
vt 0.599213 0.088307
vt 0.599213 0.088307
vt 0.599213 0.088307
vt 0.599213 0.088307
vt 0.599213 0.088307
vt 0.599213 0.088307
vt 0.599213 0.088307
vt 0.599213 0.088307
vt 0.599213 0.088307
vt 0.599213 0.088307
vt 0.599213 0.088307
vt 0.599213 0.088307
vt 0.599213 0.088307
vt 0.599213 0.088307
vt 0.599213 0.088307
vt 0.599213 0.088307
vt 0.599213 0.088307
vt 0.599213 0.088307
vt 0.599213 0.088307
vt 0.599213 0.088307
vt 0.599213 0.088307
vt 0.599213 0.088307
vt 0.599213 0.088307
vt 0.599213 0.088307
vt 0.599213 0.088307
vt 0.599213 0.088307
vt 0.599213 0.088307
vt 0.599213 0.088307
vt 0.599213 0.088307
vt 0.599213 0.088307
vt 0.599213 0.088307
vt 0.599213 0.088307
vt 0.094882 0.663740
vt 0.094882 0.663740
vt 0.094882 0.663740
vt 0.070079 0.733189
vt 0.070079 0.733189
vt 0.070079 0.733189
vt 0.070079 0.733189
vt 0.070079 0.733189
vt 0.070079 0.733189
vt 0.070079 0.733189
vt 0.070079 0.733189
vt 0.070079 0.733189
vt 0.070079 0.733189
vt 0.070079 0.733189
vt 0.070079 0.733189
vt 0.070079 0.733189
vt 0.070079 0.733189
vt 0.070079 0.733189
vt 0.070079 0.733189
vt 0.070079 0.733189
vt 0.070079 0.733189
vt 0.070079 0.733189
vt 0.070079 0.733189
vt 0.070079 0.733189
vt 0.070079 0.733189
vt 0.070079 0.733189
vt 0.070079 0.733189
vt 0.070079 0.733189
vt 0.070079 0.733189
vt 0.070079 0.733189
vt 0.070079 0.733189
vt 0.070079 0.733189
vt 0.070079 0.733189
vt 0.070079 0.733189
vt 0.070079 0.733189
vt 0.070079 0.733189
vt 0.070079 0.733189
vt 0.070079 0.733189
vt 0.070079 0.733189
vt 0.070079 0.733189
vt 0.070079 0.733189
vt 0.070079 0.733189
vt 0.070079 0.733189
vt 0.070079 0.733189
vt 0.070079 0.733189
vt 0.070079 0.733189
vt 0.070079 0.733189
vt 0.070079 0.733189
vt 0.070079 0.733189
vt 0.070079 0.733189
vt 0.070079 0.733189
vt 0.070079 0.733189
vt 0.070079 0.733189
vt 0.070079 0.733189
vt 0.070079 0.733189
vt 0.070079 0.733189
vt 0.070079 0.733189
vt 0.070079 0.733189
vt 0.070079 0.733189
vt 0.070079 0.733189
vt 0.070079 0.733189
vt 0.070079 0.733189
vt 0.070079 0.733189
vt 0.070079 0.733189
vt 0.070079 0.733189
vt 0.599213 0.088307
vt 0.599213 0.088307
vt 0.599213 0.088307
vt 0.599213 0.088307
vt 0.599213 0.088307
vt 0.599213 0.088307
vt 0.599213 0.088307
vt 0.599213 0.088307
vt 0.599213 0.088307
vt 0.599213 0.088307
vt 0.599213 0.088307
vt 0.599213 0.088307
vt 0.599213 0.088307
vt 0.599213 0.088307
vt 0.599213 0.088307
vt 0.599213 0.088307
vt 0.599213 0.088307
vt 0.599213 0.088307
vt 0.599213 0.088307
vt 0.599213 0.088307
vt 0.599213 0.088307
vt 0.599213 0.088307
vt 0.599213 0.088307
vt 0.599213 0.088307
vt 0.599213 0.088307
vt 0.599213 0.088307
vt 0.599213 0.088307
vt 0.599213 0.088307
vt 0.599213 0.088307
vt 0.599213 0.088307
vt 0.599213 0.088307
vt 0.599213 0.088307
vt 0.599213 0.088307
vt 0.599213 0.088307
vt 0.599213 0.088307
vt 0.599213 0.088307
vt 0.599213 0.088307
vt 0.599213 0.088307
vt 0.599213 0.088307
vt 0.599213 0.088307
vt 0.599213 0.088307
vt 0.599213 0.088307
vt 0.599213 0.088307
vt 0.599213 0.088307
vt 0.599213 0.088307
vt 0.599213 0.088307
vt 0.599213 0.088307
vt 0.599213 0.088307
vt 0.599213 0.088307
vt 0.599213 0.088307
vt 0.599213 0.088307
vt 0.599213 0.088307
vt 0.599213 0.088307
vt 0.599213 0.088307
vt 0.599213 0.088307
vt 0.599213 0.088307
vt 0.599213 0.088307
vt 0.599213 0.088307
vt 0.599213 0.088307
vt 0.599213 0.088307
vt 0.599213 0.088307
vt 0.599213 0.088307
vt 0.599213 0.088307
vt 0.599213 0.088307
vt 0.599213 0.088307
vt 0.599213 0.088307
vt 0.599213 0.088307
vt 0.599213 0.088307
vt 0.094882 0.663740
vt 0.094882 0.663740
vt 0.094882 0.663740
vt 0.094882 0.663740
vt 0.094882 0.663740
vt 0.094882 0.663740
vt 0.094882 0.663740
vt 0.094882 0.663740
vt 0.094882 0.663740
vt 0.094882 0.663740
vt 0.094882 0.663740
vt 0.094882 0.663740
vt 0.094882 0.663740
vt 0.094882 0.663740
vt 0.094882 0.663740
vt 0.094882 0.663740
vt 0.094882 0.663740
vt 0.094882 0.663740
vt 0.094882 0.663740
vt 0.094882 0.663740
vt 0.094882 0.663740
vt 0.094882 0.663740
vt 0.094882 0.663740
vt 0.094882 0.663740
vt 0.094882 0.663740
vt 0.094882 0.663740
vt 0.094882 0.663740
vt 0.094882 0.663740
vt 0.094882 0.663740
vt 0.070079 0.733189
vt 0.070079 0.733189
vn -0.3020 -0.7749 0.5553
vn -0.3020 -0.6517 0.6958
vn -0.3020 -0.5034 0.8096
vn -0.3020 -0.3358 0.8922
vn -0.3020 -0.1553 0.9406
vn -0.3020 0.0312 0.9528
vn -0.3020 0.2165 0.9284
vn -0.3020 0.3934 0.8683
vn -0.3020 0.5553 0.7749
vn -0.3020 0.6958 0.6517
vn -0.3020 0.8096 0.5034
vn -0.3020 0.8922 0.3358
vn -0.3020 0.9406 0.1553
vn -0.3020 0.9528 -0.0312
vn -0.3020 0.9284 -0.2165
vn -0.3020 0.8683 -0.3934
vn -0.3020 0.7749 -0.5553
vn -0.3020 0.6517 -0.6958
vn -0.3020 0.5034 -0.8096
vn -0.3020 0.3358 -0.8922
vn -0.3020 0.1553 -0.9406
vn -0.3020 -0.0312 -0.9528
vn -0.3020 -0.2165 -0.9284
vn -0.3020 -0.3935 -0.8683
vn -0.3020 -0.5553 -0.7749
vn -0.3020 -0.6958 -0.6517
vn -0.3020 -0.8096 -0.5034
vn -0.3020 -0.8922 -0.3358
vn -0.3020 -0.9406 -0.1553
vn -0.3020 -0.9528 0.0312
vn 1.0000 -0.0000 0.0000
vn -0.3020 -0.9284 0.2165
vn -0.3020 -0.8683 0.3934
vn -1.0000 0.0000 0.0000
vn -0.3020 -0.3934 -0.8683
vn -0.3020 0.3934 0.8684
vn -0.1741 0.4924 0.8528
vn -0.1018 0.9948 0.0000
vn -0.1394 -0.9902 0.0000
vn -0.0620 -0.4990 -0.8644
vn -0.1018 0.4974 -0.8615
vn -0.1394 -0.4951 0.8576
vn 1.0000 -0.0001 0.0000
vn 1.0000 0.0001 0.0000
vn 1.0000 0.0003 0.0000
vn -1.0000 0.0001 0.0002
vn -1.0000 0.0002 0.0000
vn -1.0000 -0.0002 0.0001
vn -1.0000 0.0002 -0.0001
vn -1.0000 -0.0002 0.0000
vn -1.0000 0.0001 0.0000
vn -1.0000 0.0005 0.0000
vn -0.3019 0.9528 -0.0312
vn -0.3019 -0.8922 -0.3358
vn -1.0000 -0.0001 0.0000
usemtl Material
s off
f 97/1/1 4/2/1 98/3/1
f 98/3/2 6/4/2 99/5/2
f 6/4/3 100/6/3 99/5/3
f 8/7/4 101/8/4 100/6/4
f 10/9/5 102/10/5 101/8/5
f 12/11/6 103/12/6 102/10/6
f 14/13/7 104/14/7 103/12/7
f 104/14/8 18/15/8 105/16/8
f 18/15/9 106/17/9 105/16/9
f 20/18/10 107/19/10 106/17/10
f 22/20/11 108/21/11 107/19/11
f 24/22/12 109/23/12 108/21/12
f 109/23/13 28/24/13 110/25/13
f 110/25/14 30/26/14 111/27/14
f 30/26/15 112/28/15 111/27/15
f 32/29/16 113/30/16 112/28/16
f 113/30/17 36/31/17 114/32/17
f 36/31/18 115/33/18 114/32/18
f 38/34/19 116/35/19 115/33/19
f 40/36/20 117/37/20 116/35/20
f 42/38/21 118/39/21 117/37/21
f 44/40/22 119/41/22 118/39/22
f 119/41/23 48/42/23 120/43/23
f 48/42/24 121/44/24 120/43/24
f 50/45/25 122/46/25 121/44/25
f 122/46/26 54/47/26 123/48/26
f 123/48/27 56/49/27 124/50/27
f 56/49/28 125/51/28 124/50/28
f 58/52/29 126/53/29 125/51/29
f 60/54/30 127/55/30 126/53/30
f 38/34/31 22/20/31 6/4/31
f 62/56/32 128/57/32 127/55/32
f 64/58/33 97/1/33 128/57/33
f 31/59/34 47/60/34 63/61/34
f 96/62/33 1/63/33 63/64/33
f 95/65/32 63/64/32 61/66/32
f 94/67/30 61/66/30 59/68/30
f 93/69/29 59/68/29 57/70/29
f 92/71/28 57/70/28 55/72/28
f 91/73/27 55/72/27 53/74/27
f 90/75/26 53/74/26 51/76/26
f 89/77/25 51/76/25 49/78/25
f 88/79/35 49/78/35 47/80/35
f 87/81/23 47/80/23 45/82/23
f 43/83/22 87/81/22 45/82/22
f 85/84/21 43/83/21 41/85/21
f 84/86/20 41/85/20 39/87/20
f 83/88/19 39/87/19 37/89/19
f 82/90/18 37/89/18 35/91/18
f 81/92/17 35/91/17 33/93/17
f 80/94/16 33/93/16 31/95/16
f 79/96/15 31/95/15 29/97/15
f 78/98/14 29/97/14 27/99/14
f 77/100/13 27/99/13 25/101/13
f 76/102/12 25/101/12 23/103/12
f 75/104/11 23/103/11 21/105/11
f 19/106/10 75/104/10 21/105/10
f 73/107/9 19/106/9 17/108/9
f 72/109/36 17/108/36 15/110/36
f 71/111/7 15/110/7 13/112/7
f 70/113/6 13/112/6 11/114/6
f 69/115/5 11/114/5 9/116/5
f 68/117/4 9/116/4 7/118/4
f 67/119/3 7/118/3 5/120/3
f 66/121/2 5/120/2 3/122/2
f 65/123/1 3/122/1 1/63/1
f 128/57/33 65/124/33 96/125/33
f 127/55/32 96/125/32 95/126/32
f 126/53/30 95/126/30 94/127/30
f 125/51/31 147/128/31 145/129/31
f 123/48/31 139/130/31 122/46/31
f 92/131/34 142/132/34 144/133/34
f 124/50/31 141/134/31 123/48/31
f 89/135/25 122/46/25 90/136/25
f 120/43/24 89/135/24 88/137/24
f 87/138/23 120/43/23 88/137/23
f 86/139/22 119/41/22 87/138/22
f 85/140/21 118/39/21 86/139/21
f 84/141/20 117/37/20 85/140/20
f 115/33/19 84/141/19 83/142/19
f 114/32/18 83/142/18 82/143/18
f 113/30/31 133/144/31 112/28/31
f 81/145/34 138/146/34 82/143/34
f 110/25/37 130/147/37 78/148/37
f 79/149/34 130/147/34 132/150/34
f 109/23/13 78/148/13 77/151/13
f 108/21/12 77/151/12 76/152/12
f 107/19/11 76/152/11 75/153/11
f 106/17/10 75/153/10 74/154/10
f 105/16/9 74/154/9 73/155/9
f 104/14/8 73/155/8 72/156/8
f 104/14/38 158/157/38 157/158/38
f 100/6/39 150/159/39 68/160/39
f 102/10/31 155/161/31 153/162/31
f 71/163/34 158/157/34 72/156/34
f 67/164/3 100/6/3 68/160/3
f 98/3/2 67/164/2 66/165/2
f 97/1/1 66/165/1 65/124/1
f 136/166/17 137/167/17 138/146/17
f 133/144/16 136/166/16 134/168/16
f 131/169/15 134/168/15 132/150/15
f 130/147/14 131/169/14 132/150/14
f 114/32/40 138/146/40 137/167/40
f 81/145/34 134/168/34 136/166/34
f 112/28/31 131/169/31 111/27/31
f 80/170/34 132/150/34 134/168/34
f 111/27/31 129/171/31 110/25/31
f 113/30/31 137/167/31 135/172/31
f 145/129/29 148/173/29 146/174/29
f 143/175/28 146/174/28 144/133/28
f 141/134/27 144/133/27 142/132/27
f 139/130/26 142/132/26 140/176/26
f 91/177/34 140/176/34 142/132/34
f 93/178/34 148/173/34 94/127/34
f 122/46/41 140/176/41 90/136/41
f 124/50/31 145/129/31 143/175/31
f 126/53/42 148/173/42 147/128/42
f 92/131/34 146/174/34 93/178/34
f 155/161/7 158/157/7 156/179/7
f 153/162/6 156/179/6 154/180/6
f 152/181/5 153/162/5 154/180/5
f 149/182/4 152/181/4 150/159/4
f 70/183/34 156/179/34 71/163/34
f 102/10/31 151/184/31 101/8/31
f 70/183/34 152/181/34 154/180/34
f 101/8/31 149/182/31 100/6/31
f 103/12/31 157/158/31 155/161/31
f 69/185/34 150/159/34 152/181/34
f 97/1/1 2/186/1 4/2/1
f 98/3/2 4/2/2 6/4/2
f 6/4/3 8/7/3 100/6/3
f 8/7/4 10/9/4 101/8/4
f 10/9/5 12/11/5 102/10/5
f 12/11/6 14/13/6 103/12/6
f 14/13/7 16/187/7 104/14/7
f 104/14/8 16/187/8 18/15/8
f 18/15/9 20/18/9 106/17/9
f 20/18/10 22/20/10 107/19/10
f 22/20/11 24/22/11 108/21/11
f 24/22/12 26/188/12 109/23/12
f 109/23/13 26/188/13 28/24/13
f 110/25/14 28/24/14 30/26/14
f 30/26/15 32/29/15 112/28/15
f 32/29/16 34/189/16 113/30/16
f 113/30/17 34/189/17 36/31/17
f 36/31/18 38/34/18 115/33/18
f 38/34/19 40/36/19 116/35/19
f 40/36/20 42/38/20 117/37/20
f 42/38/21 44/40/21 118/39/21
f 44/40/22 46/190/22 119/41/22
f 119/41/23 46/190/23 48/42/23
f 48/42/35 50/45/35 121/44/35
f 50/45/25 52/191/25 122/46/25
f 122/46/26 52/191/26 54/47/26
f 123/48/27 54/47/27 56/49/27
f 56/49/28 58/52/28 125/51/28
f 58/52/29 60/54/29 126/53/29
f 60/54/30 62/56/30 127/55/30
f 6/4/43 4/2/43 2/186/43
f 2/186/31 64/58/31 6/4/31
f 64/58/44 62/56/44 6/4/44
f 62/56/45 60/54/45 58/52/45
f 58/52/43 56/49/43 54/47/43
f 54/47/43 52/191/43 50/45/43
f 50/45/31 48/42/31 54/47/31
f 48/42/31 46/190/31 54/47/31
f 46/190/31 44/40/31 38/34/31
f 44/40/31 42/38/31 38/34/31
f 42/38/31 40/36/31 38/34/31
f 38/34/31 36/31/31 34/189/31
f 34/189/31 32/29/31 38/34/31
f 32/29/31 30/26/31 38/34/31
f 30/26/31 28/24/31 22/20/31
f 28/24/44 26/188/44 22/20/44
f 26/188/43 24/22/43 22/20/43
f 22/20/44 20/18/44 18/15/44
f 18/15/31 16/187/31 22/20/31
f 16/187/31 14/13/31 22/20/31
f 14/13/31 12/11/31 6/4/31
f 12/11/31 10/9/31 6/4/31
f 10/9/31 8/7/31 6/4/31
f 62/56/31 58/52/31 6/4/31
f 58/52/31 54/47/31 6/4/31
f 54/47/31 46/190/31 38/34/31
f 38/34/31 30/26/31 22/20/31
f 22/20/31 14/13/31 6/4/31
f 6/4/31 54/47/31 38/34/31
f 62/56/32 64/58/32 128/57/32
f 64/58/33 2/186/33 97/1/33
f 63/61/34 1/192/34 3/193/34
f 3/193/34 5/194/34 7/195/34
f 7/195/46 9/196/46 11/197/46
f 11/197/34 13/198/34 15/199/34
f 15/199/47 17/200/47 23/201/47
f 17/200/48 19/202/48 23/201/48
f 19/202/49 21/203/49 23/201/49
f 23/201/34 25/204/34 31/59/34
f 25/204/34 27/205/34 31/59/34
f 27/205/34 29/206/34 31/59/34
f 31/59/50 33/207/50 35/208/50
f 35/208/34 37/209/34 31/59/34
f 37/209/34 39/210/34 31/59/34
f 39/210/51 41/211/51 43/212/51
f 43/212/34 45/213/34 47/60/34
f 47/60/34 49/214/34 51/215/34
f 51/215/34 53/216/34 55/217/34
f 55/217/52 57/218/52 59/219/52
f 59/219/34 61/220/34 55/217/34
f 61/220/34 63/61/34 55/217/34
f 63/61/34 3/193/34 15/199/34
f 3/193/34 7/195/34 15/199/34
f 7/195/34 11/197/34 15/199/34
f 39/210/34 43/212/34 31/59/34
f 43/212/34 47/60/34 31/59/34
f 47/60/34 51/215/34 63/61/34
f 51/215/51 55/217/51 63/61/51
f 15/199/34 23/201/34 63/61/34
f 23/201/34 31/59/34 63/61/34
f 96/62/33 65/123/33 1/63/33
f 95/65/32 96/62/32 63/64/32
f 94/67/30 95/65/30 61/66/30
f 93/69/29 94/67/29 59/68/29
f 92/71/28 93/69/28 57/70/28
f 91/73/27 92/71/27 55/72/27
f 90/75/26 91/73/26 53/74/26
f 89/77/25 90/75/25 51/76/25
f 88/79/35 89/77/35 49/78/35
f 87/81/23 88/79/23 47/80/23
f 43/83/22 86/221/22 87/81/22
f 85/84/21 86/221/21 43/83/21
f 84/86/20 85/84/20 41/85/20
f 83/88/19 84/86/19 39/87/19
f 82/90/18 83/88/18 37/89/18
f 81/92/17 82/90/17 35/91/17
f 80/94/16 81/92/16 33/93/16
f 79/96/15 80/94/15 31/95/15
f 78/98/14 79/96/14 29/97/14
f 77/100/13 78/98/13 27/99/13
f 76/102/12 77/100/12 25/101/12
f 75/104/11 76/102/11 23/103/11
f 19/106/10 74/222/10 75/104/10
f 73/107/9 74/222/9 19/106/9
f 72/109/8 73/107/8 17/108/8
f 71/111/7 72/109/7 15/110/7
f 70/113/6 71/111/6 13/112/6
f 69/115/5 70/113/5 11/114/5
f 68/117/4 69/115/4 9/116/4
f 67/119/3 68/117/3 7/118/3
f 66/121/2 67/119/2 5/120/2
f 65/123/1 66/121/1 3/122/1
f 128/57/33 97/1/33 65/124/33
f 127/55/32 128/57/32 96/125/32
f 126/53/30 127/55/30 95/126/30
f 125/51/31 126/53/31 147/128/31
f 123/48/31 141/134/31 139/130/31
f 92/131/34 91/177/34 142/132/34
f 124/50/31 143/175/31 141/134/31
f 89/135/25 121/44/25 122/46/25
f 120/43/35 121/44/35 89/135/35
f 87/138/23 119/41/23 120/43/23
f 86/139/22 118/39/22 119/41/22
f 85/140/21 117/37/21 118/39/21
f 84/141/20 116/35/20 117/37/20
f 115/33/19 116/35/19 84/141/19
f 114/32/18 115/33/18 83/142/18
f 113/30/31 135/172/31 133/144/31
f 81/145/34 136/166/34 138/146/34
f 110/25/37 129/171/37 130/147/37
f 79/149/34 78/148/34 130/147/34
f 109/23/13 110/25/13 78/148/13
f 108/21/12 109/23/12 77/151/12
f 107/19/11 108/21/11 76/152/11
f 106/17/10 107/19/10 75/153/10
f 105/16/9 106/17/9 74/154/9
f 104/14/8 105/16/8 73/155/8
f 104/14/38 72/156/38 158/157/38
f 100/6/39 149/182/39 150/159/39
f 102/10/31 103/12/31 155/161/31
f 71/163/34 156/179/34 158/157/34
f 67/164/3 99/5/3 100/6/3
f 98/3/2 99/5/2 67/164/2
f 97/1/1 98/3/1 66/165/1
f 136/166/17 135/172/17 137/167/17
f 133/144/16 135/172/16 136/166/16
f 131/169/15 133/144/15 134/168/15
f 130/147/53 129/171/53 131/169/53
f 114/32/40 82/143/40 138/146/40
f 81/145/34 80/170/34 134/168/34
f 112/28/31 133/144/31 131/169/31
f 80/170/34 79/149/34 132/150/34
f 111/27/31 131/169/31 129/171/31
f 113/30/31 114/32/31 137/167/31
f 145/129/29 147/128/29 148/173/29
f 143/175/54 145/129/54 146/174/54
f 141/134/27 143/175/27 144/133/27
f 139/130/26 141/134/26 142/132/26
f 91/177/34 90/136/34 140/176/34
f 93/178/34 146/174/34 148/173/34
f 122/46/41 139/130/41 140/176/41
f 124/50/31 125/51/31 145/129/31
f 126/53/42 94/127/42 148/173/42
f 92/131/34 144/133/34 146/174/34
f 155/161/7 157/158/7 158/157/7
f 153/162/6 155/161/6 156/179/6
f 152/181/5 151/184/5 153/162/5
f 149/182/4 151/184/4 152/181/4
f 70/183/34 154/180/34 156/179/34
f 102/10/31 153/162/31 151/184/31
f 70/183/51 69/185/51 152/181/51
f 101/8/31 151/184/31 149/182/31
f 103/12/31 104/14/31 157/158/31
f 69/185/55 68/160/55 150/159/55
